<mxfile host="65bd71144e">
    <diagram id="L0BN5I405WvR0OUuwpL_" name="Page-1">
        <mxGraphModel dx="998" dy="473" grid="1" gridSize="10" guides="1" tooltips="1" connect="1" arrows="1" fold="1" page="1" pageScale="1" pageWidth="827" pageHeight="1169" math="0" shadow="0">
            <root>
                <mxCell id="0"/>
                <mxCell id="1" parent="0"/>
                <mxCell id="5" style="edgeStyle=none;html=1;exitX=0.5;exitY=1;exitDx=0;exitDy=0;" parent="1" source="2" edge="1">
                    <mxGeometry relative="1" as="geometry">
                        <mxPoint x="395" y="360" as="targetPoint"/>
                    </mxGeometry>
                </mxCell>
                <mxCell id="2" value="Tu prend des cours de plongée sous-marin" style="rounded=1;whiteSpace=wrap;html=1;spacing=5;spacingTop=3;spacingBottom=3;" parent="1" vertex="1">
                    <mxGeometry x="295" y="220" width="200" height="80" as="geometry"/>
                </mxCell>
                <mxCell id="8" value="&lt;font style=&quot;font-size: 15px&quot;&gt;&lt;b&gt;genre de l'histoire: action, aventure&lt;br&gt;inspiration: Shark Week&lt;br&gt;titre de l'histoire: pas encore trouver&lt;br&gt;Couleur choisi: différente teinte de bleu&lt;/b&gt;&lt;/font&gt;" style="text;html=1;strokeColor=none;fillColor=none;align=left;verticalAlign=middle;whiteSpace=wrap;rounded=0;" parent="1" vertex="1">
                    <mxGeometry x="150" y="40" width="400" height="90" as="geometry"/>
                </mxCell>
                <mxCell id="12" value="Non" style="edgeStyle=none;html=1;" parent="1" source="9" edge="1">
                    <mxGeometry relative="1" as="geometry">
                        <mxPoint x="470" y="610" as="targetPoint"/>
                    </mxGeometry>
                </mxCell>
                <mxCell id="14" value="Oui" style="edgeStyle=none;html=1;" parent="1" source="9" edge="1">
                    <mxGeometry relative="1" as="geometry">
                        <mxPoint x="350" y="610" as="targetPoint"/>
                    </mxGeometry>
                </mxCell>
                <mxCell id="9" value="Apporte tu ta caméra Go Pro&amp;nbsp;" style="rhombus;whiteSpace=wrap;html=1;spacing=7;spacingTop=13;spacingLeft=4;spacingRight=4;fillColor=#1ba1e2;fontColor=#ffffff;strokeColor=#006EAF;" parent="1" vertex="1">
                    <mxGeometry x="320" y="480" width="160" height="90" as="geometry"/>
                </mxCell>
                <mxCell id="11" value="" style="edgeStyle=none;html=1;" parent="1" source="10" target="9" edge="1">
                    <mxGeometry relative="1" as="geometry"/>
                </mxCell>
                <mxCell id="10" value="Tu pars en voyage au&amp;nbsp;" style="rounded=1;whiteSpace=wrap;html=1;spacing=5;spacingTop=3;spacingBottom=3;" parent="1" vertex="1">
                    <mxGeometry x="300" y="360" width="200" height="80" as="geometry"/>
                </mxCell>
                <mxCell id="23" style="edgeStyle=none;html=1;exitX=0.5;exitY=1;exitDx=0;exitDy=0;fontFamily=Helvetica;fontSize=12;fontColor=default;" edge="1" parent="1" source="15">
                    <mxGeometry relative="1" as="geometry">
                        <mxPoint x="414" y="720" as="targetPoint"/>
                    </mxGeometry>
                </mxCell>
                <mxCell id="15" value="Ton amis te dit que l'épave à explorer est a droite" style="rounded=1;whiteSpace=wrap;html=1;spacing=5;spacingTop=3;spacingBottom=3;" vertex="1" parent="1">
                    <mxGeometry x="314" y="620" width="200" height="80" as="geometry"/>
                </mxCell>
                <mxCell id="18" style="edgeStyle=none;html=1;exitX=1;exitY=0.5;exitDx=0;exitDy=0;fontFamily=Helvetica;fontSize=12;fontColor=default;" edge="1" parent="1" source="17">
                    <mxGeometry relative="1" as="geometry">
                        <mxPoint x="630" y="775" as="targetPoint"/>
                    </mxGeometry>
                </mxCell>
                <mxCell id="58" value="Gauche" style="edgeLabel;html=1;align=center;verticalAlign=middle;resizable=0;points=[];fontSize=12;fontFamily=Helvetica;fontColor=default;" vertex="1" connectable="0" parent="18">
                    <mxGeometry x="-0.154" relative="1" as="geometry">
                        <mxPoint as="offset"/>
                    </mxGeometry>
                </mxCell>
                <mxCell id="25" value="droite" style="edgeStyle=none;html=1;exitX=0.5;exitY=1;exitDx=0;exitDy=0;fontFamily=Helvetica;fontSize=12;fontColor=default;" edge="1" parent="1" source="17">
                    <mxGeometry relative="1" as="geometry">
                        <mxPoint x="414" y="860" as="targetPoint"/>
                    </mxGeometry>
                </mxCell>
                <mxCell id="17" value="Vas-tu à droite ou as gauche" style="rhombus;whiteSpace=wrap;html=1;spacing=7;spacingTop=13;spacingLeft=4;spacingRight=4;fillColor=#1ba1e2;fontColor=#ffffff;strokeColor=#006EAF;" vertex="1" parent="1">
                    <mxGeometry x="334" y="730" width="160" height="90" as="geometry"/>
                </mxCell>
                <mxCell id="20" style="edgeStyle=none;html=1;exitX=0.5;exitY=0;exitDx=0;exitDy=0;fontFamily=Helvetica;fontSize=12;fontColor=default;entryX=0.98;entryY=0.375;entryDx=0;entryDy=0;entryPerimeter=0;" edge="1" parent="1" source="19" target="15">
                    <mxGeometry relative="1" as="geometry">
                        <mxPoint x="719" y="640" as="targetPoint"/>
                        <Array as="points">
                            <mxPoint x="719" y="650"/>
                        </Array>
                    </mxGeometry>
                </mxCell>
                <mxCell id="19" value="Mauvais coté" style="rounded=1;whiteSpace=wrap;html=1;spacing=5;spacingTop=3;spacingBottom=3;" vertex="1" parent="1">
                    <mxGeometry x="650" y="747.5" width="137.5" height="55" as="geometry"/>
                </mxCell>
                <mxCell id="24" value="Tu vois &lt;br&gt;se qui ressemble a un requin à ta gauche&amp;nbsp;&amp;nbsp;" style="rounded=1;whiteSpace=wrap;html=1;spacing=5;spacingTop=3;spacingBottom=3;" vertex="1" parent="1">
                    <mxGeometry x="314" y="870" width="200" height="80" as="geometry"/>
                </mxCell>
                <mxCell id="33" style="edgeStyle=none;html=1;exitX=1;exitY=0.5;exitDx=0;exitDy=0;fontFamily=Helvetica;fontSize=12;fontColor=default;" edge="1" parent="1" source="26">
                    <mxGeometry relative="1" as="geometry">
                        <mxPoint x="560" y="1025" as="targetPoint"/>
                    </mxGeometry>
                </mxCell>
                <mxCell id="34" value="Gauche" style="edgeLabel;html=1;align=center;verticalAlign=middle;resizable=0;points=[];fontSize=12;fontFamily=Helvetica;fontColor=default;" vertex="1" connectable="0" parent="33">
                    <mxGeometry x="0.2741" y="-1" relative="1" as="geometry">
                        <mxPoint as="offset"/>
                    </mxGeometry>
                </mxCell>
                <mxCell id="36" value="Droite" style="edgeStyle=none;html=1;exitX=0;exitY=0.5;exitDx=0;exitDy=0;fontFamily=Helvetica;fontSize=12;fontColor=default;" edge="1" parent="1" source="26">
                    <mxGeometry relative="1" as="geometry">
                        <mxPoint x="260" y="1025" as="targetPoint"/>
                    </mxGeometry>
                </mxCell>
                <mxCell id="26" value="aller a gauche ou rester à droite" style="rhombus;whiteSpace=wrap;html=1;spacing=7;spacingTop=13;spacingLeft=4;spacingRight=4;fillColor=#1ba1e2;fontColor=#ffffff;strokeColor=#006EAF;" vertex="1" parent="1">
                    <mxGeometry x="334" y="980" width="160" height="90" as="geometry"/>
                </mxCell>
                <mxCell id="30" style="edgeStyle=none;html=1;exitX=0.5;exitY=1;exitDx=0;exitDy=0;fontFamily=Helvetica;fontSize=12;fontColor=default;" edge="1" parent="1" source="29">
                    <mxGeometry relative="1" as="geometry">
                        <mxPoint x="670" y="1120" as="targetPoint"/>
                    </mxGeometry>
                </mxCell>
                <mxCell id="44" style="edgeStyle=none;html=1;exitX=0.5;exitY=1;exitDx=0;exitDy=0;fontFamily=Helvetica;fontSize=12;fontColor=default;entryX=0.452;entryY=-0.041;entryDx=0;entryDy=0;entryPerimeter=0;" edge="1" parent="1" source="29" target="31">
                    <mxGeometry relative="1" as="geometry">
                        <mxPoint x="650" y="1210" as="targetPoint"/>
                    </mxGeometry>
                </mxCell>
                <mxCell id="29" value="tu va a gauche et prend une change de t'éloigner de ton binome pour filmer le requin que tu pense avoir vu" style="rounded=1;whiteSpace=wrap;html=1;spacing=5;spacingTop=3;spacingBottom=3;" vertex="1" parent="1">
                    <mxGeometry x="550" y="1115" width="200" height="80" as="geometry"/>
                </mxCell>
                <mxCell id="49" style="edgeStyle=none;html=1;exitX=0.5;exitY=1;exitDx=0;exitDy=0;fontFamily=Helvetica;fontSize=12;fontColor=default;" edge="1" parent="1" source="31">
                    <mxGeometry relative="1" as="geometry">
                        <mxPoint x="660" y="1340" as="targetPoint"/>
                    </mxGeometry>
                </mxCell>
                <mxCell id="31" value="Tu entend un bruit étrange et tu réalise que c'est ta bonbonne et qu'il y a des ballounes qui sorte" style="rounded=1;whiteSpace=wrap;html=1;spacing=5;spacingTop=3;spacingBottom=3;" vertex="1" parent="1">
                    <mxGeometry x="560" y="1230" width="200" height="80" as="geometry"/>
                </mxCell>
                <mxCell id="32" value="Tu meurt" style="rounded=1;whiteSpace=wrap;html=1;spacing=5;spacingTop=3;spacingBottom=3;" vertex="1" parent="1">
                    <mxGeometry x="560" y="1350" width="200" height="80" as="geometry"/>
                </mxCell>
                <mxCell id="54" style="edgeStyle=none;html=1;exitX=0.5;exitY=1;exitDx=0;exitDy=0;fontFamily=Helvetica;fontSize=12;fontColor=default;" edge="1" parent="1" source="35">
                    <mxGeometry relative="1" as="geometry">
                        <mxPoint x="150" y="1100" as="targetPoint"/>
                    </mxGeometry>
                </mxCell>
                <mxCell id="35" value="Ton binome de fait signe qu'il y a un requin un peu plus loin" style="rounded=1;whiteSpace=wrap;html=1;spacing=5;spacingTop=3;spacingBottom=3;" vertex="1" parent="1">
                    <mxGeometry x="50" y="990" width="200" height="80" as="geometry"/>
                </mxCell>
                <mxCell id="39" value="Oui" style="edgeStyle=none;html=1;exitX=1;exitY=0.5;exitDx=0;exitDy=0;fontFamily=Helvetica;fontSize=12;fontColor=default;" edge="1" parent="1" source="37">
                    <mxGeometry relative="1" as="geometry">
                        <mxPoint x="280" y="1155" as="targetPoint"/>
                    </mxGeometry>
                </mxCell>
                <mxCell id="50" value="Non" style="edgeStyle=none;html=1;exitX=0.5;exitY=1;exitDx=0;exitDy=0;fontFamily=Helvetica;fontSize=12;fontColor=default;" edge="1" parent="1" source="37">
                    <mxGeometry relative="1" as="geometry">
                        <mxPoint x="150" y="1260" as="targetPoint"/>
                        <Array as="points">
                            <mxPoint x="150" y="1220"/>
                        </Array>
                    </mxGeometry>
                </mxCell>
                <mxCell id="37" value="As-tu ta go pros&amp;nbsp;" style="rhombus;whiteSpace=wrap;html=1;spacing=7;spacingTop=13;spacingLeft=4;spacingRight=4;fillColor=#1ba1e2;fontColor=#ffffff;strokeColor=#006EAF;" vertex="1" parent="1">
                    <mxGeometry x="70" y="1110" width="160" height="90" as="geometry"/>
                </mxCell>
                <mxCell id="52" style="edgeStyle=none;html=1;exitX=0.5;exitY=1;exitDx=0;exitDy=0;fontFamily=Helvetica;fontSize=12;fontColor=default;" edge="1" parent="1" source="38">
                    <mxGeometry relative="1" as="geometry">
                        <mxPoint x="270" y="1320" as="targetPoint"/>
                        <Array as="points">
                            <mxPoint x="390" y="1320"/>
                        </Array>
                    </mxGeometry>
                </mxCell>
                <mxCell id="38" value="Tu&amp;nbsp; film le tout&amp;nbsp;" style="rounded=1;whiteSpace=wrap;html=1;spacing=5;spacingTop=3;spacingBottom=3;" vertex="1" parent="1">
                    <mxGeometry x="290" y="1115" width="200" height="80" as="geometry"/>
                </mxCell>
                <mxCell id="42" value="Oui" style="edgeStyle=none;html=1;exitX=0.5;exitY=1;exitDx=0;exitDy=0;entryX=0.5;entryY=0;entryDx=0;entryDy=0;fontFamily=Helvetica;fontSize=12;fontColor=default;" edge="1" parent="1" source="41" target="29">
                    <mxGeometry relative="1" as="geometry"/>
                </mxCell>
                <mxCell id="48" value="Non" style="edgeStyle=none;html=1;exitX=1;exitY=0.5;exitDx=0;exitDy=0;fontFamily=Helvetica;fontSize=12;fontColor=default;entryX=1.019;entryY=0.367;entryDx=0;entryDy=0;entryPerimeter=0;" edge="1" parent="1" source="41" target="31">
                    <mxGeometry relative="1" as="geometry">
                        <mxPoint x="800" y="1270" as="targetPoint"/>
                        <Array as="points">
                            <mxPoint x="800" y="1025"/>
                            <mxPoint x="800" y="1259"/>
                        </Array>
                    </mxGeometry>
                </mxCell>
                <mxCell id="41" value="As-tu ta go pros&amp;nbsp;" style="rhombus;whiteSpace=wrap;html=1;spacing=7;spacingTop=13;spacingLeft=4;spacingRight=4;fillColor=#1ba1e2;fontColor=#ffffff;strokeColor=#006EAF;" vertex="1" parent="1">
                    <mxGeometry x="570" y="980" width="160" height="90" as="geometry"/>
                </mxCell>
                <mxCell id="55" style="edgeStyle=none;html=1;exitX=0.5;exitY=1;exitDx=0;exitDy=0;fontFamily=Helvetica;fontSize=12;fontColor=default;" edge="1" parent="1" source="51">
                    <mxGeometry relative="1" as="geometry">
                        <mxPoint x="160" y="1380" as="targetPoint"/>
                    </mxGeometry>
                </mxCell>
                <mxCell id="51" value="Tu entend un bruit étrange et tu réalise que c'est ta bonbonne et qu'il y a des ballounes qui sorte" style="rounded=1;whiteSpace=wrap;html=1;spacing=5;spacingTop=3;spacingBottom=3;" vertex="1" parent="1">
                    <mxGeometry x="60" y="1270" width="200" height="80" as="geometry"/>
                </mxCell>
                <mxCell id="56" style="edgeStyle=none;html=1;exitX=0.5;exitY=1;exitDx=0;exitDy=0;fontFamily=Helvetica;fontSize=12;fontColor=default;" edge="1" parent="1" source="53">
                    <mxGeometry relative="1" as="geometry">
                        <mxPoint x="160" y="1530" as="targetPoint"/>
                    </mxGeometry>
                </mxCell>
                <mxCell id="53" value="Ton binome te passe son d'étendeur d'urgence" style="rounded=1;whiteSpace=wrap;html=1;spacing=5;spacingTop=3;spacingBottom=3;" vertex="1" parent="1">
                    <mxGeometry x="60" y="1390" width="200" height="80" as="geometry"/>
                </mxCell>
                <mxCell id="57" value="Vous remonteza la surface&amp;nbsp;" style="rounded=1;whiteSpace=wrap;html=1;spacing=5;spacingTop=3;spacingBottom=3;" vertex="1" parent="1">
                    <mxGeometry x="60" y="1540" width="200" height="80" as="geometry"/>
                </mxCell>
            </root>
        </mxGraphModel>
    </diagram>
</mxfile>